# xmcd
#
# Track frame offsets:
#	150
#	15806
#	32085
#	50262
#	64470
#	80527
#	97160
#	110528
#	128783
#	141199
#	163441
#	179706
#	196888
#	210247
#	226856
#	241814
#	256582
#	268132
#	280786
#
# Disc length: 3936 seconds
#
# Revision: 1
# Processed by: cddbd v1.5.2PL0 Copyright (c) Steve Scherf et al.
# Submitted via: audiograbber 1.83.01
#
DISCID=0a0f5e13
DTITLE=Various Artist - Hott Country 189
DYEAR=2011
DGENRE=Country
TTITLE0=Kenny Chesney - Reality
TTITLE1=Blake Shelton - Footloose
TTITLE2=Brent Anderson - Amy's Song
TTITLE3=Kip Moore - Somethin' 'Bout A Truck
TTITLE4=Jason McCoy - I'd Still Have Everything
TTITLE5=Terri Clark - The One
TTITLE6=Deric Ruttan - She's Like A Song
TTITLE7=Victoria Banks - Never Be The Same
TTITLE8=Billy Currington - Like My Dog
TTITLE9=Paul Brandt - I Do ( Revisited )
TTITLE10=Keith Urban - You Gonna Fly
TTITLE11=Kid Rock Feat Angaleena Presley - Care
TTITLE12=Sunny Sweeney - Drink Myself Single
TTITLE13=Danny Gokey - Second Hand Heart
TTITLE14=Alan Jackson - You've Been Lonesome Too
TTITLE15=Jason McCoy and Willie Mack - I Wanna Be Your Santa Claus
TTITLE16=Chad Brownlee - Christmas ( Baby Please Come Home )
TTITLE17=George Strait - Up On The Housetop
TTITLE18=Lindi Ortega - All I Want For Christmas Is A Cowboy
EXTD=November 2011
EXTT0=
EXTT1=
EXTT2=
EXTT3=
EXTT4=
EXTT5=
EXTT6=
EXTT7=
EXTT8=
EXTT9=
EXTT10=
EXTT11=
EXTT12=
EXTT13=
EXTT14=
EXTT15=
EXTT16=
EXTT17=
EXTT18=
PLAYORDER=
